<svg width="66" height="66" viewBox="0 0 66 66" fill="none" xmlns="http://www.w3.org/2000/svg">
<path d="M40.7674 17.2673L14.2869 17.3085L9.97013 24.1911L36.4073 24.1828L40.7674 17.2673ZM29.3308 42.3184C29.0194 42.3184 13.6476 42.3514 12.5957 42.3514C13.1092 41.5408 16.0297 36.9662 16.1803 36.7146C16.5165 36.7146 26.5217 36.7146 27.0518 36.7146L31.4284 29.797L6.42881 29.8382L2.06869 36.7311L7.89937 36.7208L0 49.2402H33.3114C33.9013 48.3058 44.9728 30.6426 45.4884 29.8279C45.9401 30.5168 48.9204 35.2378 49.4072 36.0195C48.6585 36.0195 45.9381 36.0195 45.9381 36.0195L41.6048 42.9021C41.6048 42.9021 41.6233 42.9021 41.6646 42.9021C42.5473 42.9021 53.46 42.9021 53.7818 42.9021C53.9571 43.1805 57.5499 48.8338 57.7438 49.137H66L45.4534 16.762C44.6449 18.0222 29.5164 42.0214 29.3308 42.3184Z" fill="white"/>
</svg>
