<svg width="237" height="80" viewBox="0 0 237 80" fill="none" xmlns="http://www.w3.org/2000/svg">
<path d="M178.889 76.2588H174.949L179.627 62.3539H177.596L172.918 76.2588H168.978L179.258 45.3936L182.582 45.3313C188.8 45.2689 188.923 46.2042 186.83 52.3149L185.291 56.8667C184.614 58.9244 184.244 59.4856 182.151 60.4833C184.367 61.855 182.521 65.2845 181.72 67.841C180.797 70.7093 179.812 73.4529 178.889 76.2588ZM184.06 49.1349H182.028L178.889 58.4879H180.92L184.06 49.1349Z" fill="white"/>
<path d="M181.105 76.2588L191.385 45.3936H195.325L185.044 76.2588H181.105Z" fill="white"/>
<path d="M193.54 76.2588H189.6L196.31 45.3936H200.188L194.525 67.4669C195.509 64.848 196.494 62.2915 197.356 59.6726L197.479 59.2985L203.266 45.456H207.021L193.54 76.2588Z" fill="white"/>
<path d="M207.39 76.2588L217.671 45.3936H221.61L212.438 72.8293H214.654L213.485 76.2588H207.39Z" fill="white"/>
<path d="M226.72 70.3352C225.365 74.3258 224.873 76.5705 220.256 76.5705C214.654 76.5705 215.393 74.8246 217.117 69.8363L218.717 65.1598H222.657L220.133 72.767H222.041L225.55 62.2915C219.641 62.3539 219.825 61.7303 221.795 55.9314L223.457 51.0055C224.75 47.2019 225.796 45.0818 230.044 45.0818C235.153 45.0818 234.845 46.3289 233.245 51.0678L231.583 55.9314H227.643L229.982 48.8231H228.074L224.811 58.5503L225.489 58.4879C231.213 58.1138 230.475 59.3609 228.69 64.5986L226.72 70.3352Z" fill="white"/>
<path d="M14.7124 58.0515L21.4838 18.9556C20.1295 24.1933 19.083 30.4911 17.2978 35.7911L9.84924 58.0515H2.77002L21.2991 2.43182H28.3783L21.5453 42.6501C23.6383 33.7335 25.5466 25.191 28.563 16.2744C30.102 11.6602 31.7025 7.04601 33.2414 2.43182H40.3207L21.73 58.0515H14.7124Z" fill="white"/>
<path d="M25.4851 58.0515L44.0758 2.43182H56.0797L53.7404 9.3531H48.8773L43.0908 26.8122H48.2002L46.0456 33.2346H40.9363L34.842 51.5667H39.9513L37.7968 57.9891H25.4851V58.0515Z" fill="white"/>
<path d="M40.9363 58.0515L59.5269 2.43182H71.5308L69.1916 9.3531H64.3285L58.4804 26.8122H63.5898L61.4352 33.2346H56.3259L50.2316 51.5667H55.341L53.1864 57.9891H40.9363V58.0515Z" fill="white"/>
<path d="M62.0508 58.1138C60.1425 58.1138 58.2957 58.0514 56.449 58.0514L74.9781 2.43181L80.703 2.36946C89.3827 2.1824 92.83 2.3071 89.5674 12.0343L76.7017 50.5066C73.9931 58.675 68.6376 58.1138 62.0508 58.1138ZM83.8425 9.29074H79.8412L65.8674 51.2549H69.8687L83.8425 9.29074Z" fill="white"/>
<path d="M57.988 69.6493L55.4641 77.1317H53.3711L58.9114 60.608H62.5433L61.8662 62.6033H60.3272L58.6651 67.654H60.2041L59.5269 69.6493H57.988Z" fill="white"/>
<path d="M64.2055 74.1387C63.5283 76.0717 63.2821 77.3188 61.0044 77.3188C60.6351 77.3188 60.3273 77.3188 59.9579 77.2564C58.2343 77.1317 58.1727 76.5082 58.6652 74.8246C59.0961 73.4529 59.4654 72.1434 59.9579 70.834C60.7582 68.4022 61.62 65.9704 62.4203 63.5386C63.0974 61.4186 63.713 60.4209 65.9906 60.4209C66.2369 60.4209 66.5447 60.4209 66.7909 60.4209C68.2067 60.5456 68.453 60.9821 68.0221 62.4162C67.6527 63.788 67.2218 65.0974 66.7293 66.4692C65.9906 69.0257 65.0673 71.5822 64.2055 74.1387ZM65.9906 62.4786H64.9441L60.6966 75.1988H61.7431L65.9906 62.4786Z" fill="white"/>
<path d="M69.4993 77.1317H67.4063L69.8687 69.6493H68.8222L66.3598 77.1317H64.2668L69.8071 60.608H71.5923C74.9165 60.5456 74.978 61.1068 73.87 64.3492L73.0081 66.781C72.6388 67.841 72.4541 68.1528 71.2845 68.714C72.4541 69.4622 71.4692 71.2705 71.0383 72.6423C70.5458 74.1388 70.0533 75.6352 69.4993 77.1317ZM72.2694 62.6033H71.2229L69.5609 67.5916H70.6074L72.2694 62.6033Z" fill="white"/>
<path d="M93.9996 66.3445C91.5372 73.5152 90.6138 77.6306 82.3035 77.6306C72.2694 77.6306 73.5622 74.4505 76.6401 65.4715L79.5333 57.0538H86.6125L82.0572 70.7716H85.5045L91.7219 52.0031C81.1338 52.0655 81.3801 51.0678 84.9505 40.5924L87.9668 31.6758C90.306 24.8168 92.1528 20.9509 99.8476 20.9509C109.02 20.9509 108.527 23.1956 105.573 31.7381L102.556 40.4677H95.477L99.7245 27.6851H96.2772L90.4292 45.1442L91.6603 45.0818C102.002 44.396 100.648 46.6407 97.3853 56.1185L93.9996 66.3445Z" fill="white"/>
<path d="M119.608 54.3726C117.269 61.4185 115.607 63.2892 108.589 63.2892H105.757L101.14 77.1317H93.9995L112.529 21.5121L118.254 21.4497C132.597 21.2627 129.088 26.0639 124.963 38.5347C123.24 43.8348 121.393 49.0725 119.608 54.3726ZM121.331 28.1839H117.515L108.035 56.5549H111.851L121.331 28.1839Z" fill="white"/>
<path d="M115.422 77.0694L133.951 21.4497H145.955L143.677 28.371H138.814L132.966 45.8301H138.075L135.921 52.2525H130.811L124.717 70.5846H129.827L127.672 77.007H115.422V77.0694Z" fill="white"/>
<path d="M130.873 77.0694L149.402 21.4497H161.406L159.128 28.371H154.265L148.417 45.8301H153.527L151.372 52.2525H146.263L140.168 70.5846H145.278L143.123 77.007H130.873V77.0694Z" fill="white"/>
<path d="M151.926 77.1941C150.018 77.1941 148.171 77.1317 146.324 77.1317L164.853 21.5121L170.578 21.4497C179.258 21.2627 182.705 21.3874 179.443 31.1146L166.639 69.5869C163.93 77.7553 158.513 77.1941 151.926 77.1941ZM173.718 28.3086H169.716L155.743 70.2728H159.744L173.718 28.3086Z" fill="white"/>
<path d="M208.868 45.456L195.879 76.2588H199.511L209.299 51.6913L202.527 76.2588H206.221L213.916 45.456H208.868Z" fill="white"/>
<path d="M182.336 23.1333H181.844L181.967 22.8215H183.259L183.136 23.1333H182.644L181.967 24.9416H181.659L182.336 23.1333Z" fill="white"/>
<path d="M183.506 22.8839H183.998L183.813 24.4427L184.737 22.8839H185.229L184.491 25.0039H184.183L184.798 23.258L183.752 25.0039H183.444L183.629 23.258L183.013 25.0039H182.705L183.506 22.8839Z" fill="white"/>
</svg>
