<svg width="188" height="77" viewBox="0 0 188 77" fill="none" xmlns="http://www.w3.org/2000/svg">
<g clip-path="url(#clip0_5_206)">
<path d="M59.1884 26.8916L63.3828 19.5891H43.1532L45.0972 16.1823H51.5851L60.0642 10.5398H48.3451L50.2106 7.30254H65.0479L76.0287 0H45.9141L30.4641 26.8916H59.1884Z" fill="white"/>
<path d="M89.4365 26.8916L93.6308 19.5891H73.4013L75.3453 16.1823H81.8332L90.3122 10.5398H78.5932L80.4586 7.30254H95.296L106.277 0H76.1622L60.7122 26.8916H89.4365Z" fill="white"/>
<path d="M80.4391 42.4746L84.7591 34.9828C86.5696 31.8284 85.089 29.2378 81.4484 29.2378H59.3652L43.8877 56.1412H52.2921L56.8478 48.2275H70.5187C74.1554 48.2157 78.6051 45.629 80.4391 42.4746ZM74.5482 38.1096L73.6213 39.7105C73.369 40.0614 73.0407 40.3501 72.6611 40.555C72.2815 40.7599 71.8605 40.8756 71.4299 40.8934H61.05L63.5556 36.5166H73.6841C74.6856 36.5364 75.0548 37.2461 74.5482 38.1096Z" fill="white"/>
<path d="M45.6707 50.3568L48.4473 45.5344C50.2538 42.38 48.7693 39.7736 45.1287 39.7736H31.3831L32.1686 38.3738C32.7459 37.3684 34.0262 36.5443 35.0002 36.5324H48.3059L59.3023 29.2299H35.66C32.0272 29.2299 27.5579 31.8205 25.7435 34.9907L23.0533 39.6829C21.2271 42.8374 22.7156 45.4201 26.3365 45.4398H40.1921L38.9314 47.6085C38.6808 47.9666 38.3513 48.2618 37.9685 48.4711C37.5856 48.6804 37.1598 48.7981 36.7243 48.8151H23.073L12.104 56.1097H35.7385C39.3948 56.1018 43.8523 53.5191 45.6707 50.3568Z" fill="white"/>
<path d="M172.393 52.9277L172.703 52.3835H169.31L169 52.9277H170.598L168.312 56.1255H168.976L171.254 52.9277H172.393Z" fill="white"/>
<path d="M173.866 55.1318L174.368 52.3835H173.367L171.227 56.1255H171.878L173.618 53.0854H173.642L173.065 56.1255H173.52L176.418 53.0854H176.442L174.71 56.1255H175.366L177.51 52.3835H176.485L173.866 55.1318Z" fill="white"/>
<path d="M20.528 26.8877L20.5241 26.8916H20.528H28.0645H28.9285L44.3903 0H35.9898L26.2854 16.8763L23.2811 0H22.9669H15.7446H15.4618L0 26.8916H8.40443L17.665 10.7961L20.528 26.8877Z" fill="white"/>
<path d="M113.106 26.8916C116.763 26.8916 121.177 24.3089 122.991 21.1584L131.847 5.73714C133.654 2.5827 132.173 0.00393677 128.533 0.00393677H106.43L90.968 26.8916H113.106ZM110.624 7.30253H120.788C121.471 7.30253 121.856 7.63375 121.868 8.12663C121.863 8.3917 121.787 8.65055 121.648 8.87581L116.177 18.3865C115.923 18.745 115.59 19.0402 115.204 19.2494C114.818 19.4585 114.389 19.5761 113.951 19.593H103.559L110.624 7.30253Z" fill="white"/>
<path d="M172.185 29.222H150.074L134.624 56.1136H156.758C160.411 56.1136 164.829 53.5309 166.643 50.3765L175.499 34.9552C177.306 31.8047 175.825 29.222 172.185 29.222ZM165.3 38.0939L159.841 47.6085C159.587 47.967 159.253 48.2622 158.867 48.4713C158.481 48.6805 158.053 48.7981 157.614 48.815H147.215L154.284 36.5285H164.448C165.135 36.5285 165.516 36.8597 165.528 37.3486C165.52 37.6131 165.442 37.8706 165.3 38.0939Z" fill="white"/>
<path d="M86.8248 48.8072L88.7689 45.4004H95.2568L103.736 39.7578H92.0167L93.8822 36.5206H108.72L119.7 29.218H89.5857L74.1396 56.1136L102.86 56.1097L107.054 48.8072H86.8248Z" fill="white"/>
<path d="M117.073 48.8072L119.017 45.4004H125.505L133.988 39.7578H122.265L124.13 36.5206H138.968L149.948 29.218H119.834L104.388 56.1136L133.108 56.1097L137.302 48.8072H117.073Z" fill="white"/>
<path d="M131.172 26.8917L133.733 22.4754L134.911 20.4093H139.73L144.878 16.9867H136.89L138.021 15.0152H147.863L153.31 11.3876L146.94 22.4754L146.398 23.4218C145.299 25.3223 146.182 26.8759 148.362 26.9035H157.395C159.598 26.9035 162.292 25.3263 163.388 23.4139L168.756 14.0846C169.856 12.1643 168.957 10.595 166.746 10.595H135.417L126.043 26.8917H131.172ZM157.379 15.0073H161.997C162.606 15.0073 162.822 15.4331 162.52 15.9576L159.209 21.7262C159.057 21.9435 158.859 22.1236 158.628 22.2533C158.398 22.383 158.141 22.4589 157.878 22.4754H153.118C152.521 22.4754 152.332 21.9668 152.678 21.3635L155.678 16.135C155.858 15.8258 156.107 15.5631 156.406 15.368C156.704 15.1728 157.044 15.0507 157.399 15.0112L157.379 15.0073Z" fill="white"/>
<path d="M185.514 10.5832H172.609L163.227 26.8916H168.332L171.081 22.0969H177.82L175.071 26.8916H180.177L182.777 22.3611C183.66 20.7838 183.562 20.0741 181.756 19.8888C184.026 19.6798 185.098 18.3392 186.205 16.411L187.544 14.0846C188.636 12.1525 187.725 10.5832 185.514 10.5832ZM181.347 15.9615L180.778 16.9551C180.624 17.1721 180.423 17.3505 180.189 17.4764C179.955 17.6022 179.696 17.6722 179.431 17.6807H173.626L175.158 15.0112H180.837C181.441 15.0191 181.638 15.441 181.347 15.9615Z" fill="white"/>
<path d="M158.184 61.2593H157.269H150.592C149.521 61.3154 148.478 61.625 147.548 62.163C146.619 62.7009 145.829 63.4518 145.243 64.3546L143.315 67.7062C142.329 69.4214 143.123 70.8015 145.098 70.8015H151.987L150.416 73.534H144.556L144.925 72.8952H140.531L139.934 73.8928C138.948 75.6081 139.765 76.9881 141.717 76.9881H149.293C151.256 76.9881 153.656 75.6081 154.641 73.8928L156.605 70.4427C157.591 68.7274 156.77 67.3474 154.818 67.3474H147.918L149.489 64.6148H155.344L154.952 65.2812H159.449L159.955 64.3625C160.957 62.6433 160.159 61.2593 158.184 61.2593Z" fill="white"/>
<path d="M26.2932 61.283L20.2609 71.7715L19.0513 61.283H17.6414H14.3739H12.8108L12.7558 64.0944L5.33716 76.996H9.73181L15.7877 66.4641L17.0209 76.996H21.6983L30.735 61.283H26.2932Z" fill="white"/>
<path d="M48.7298 61.145H39.8306C38.759 61.2007 37.7158 61.5103 36.7861 62.0482C35.8565 62.5862 35.0668 63.3373 34.4816 64.2403L28.9244 73.9007C27.9387 75.616 28.732 77 30.7114 77H39.6106C41.5743 77 43.9699 75.6199 44.9596 73.9007L50.5168 64.2403C51.5025 62.525 50.6817 61.145 48.7298 61.145ZM40.6946 73.5932H33.4997L38.6995 64.5518H45.8982L40.6946 73.5932Z" fill="white"/>
<path d="M68.7041 61.2593H64.3095L64.2977 61.2829H62.6482L62.5893 64.256L55.2649 76.996H69.4857L71.4847 73.5182H61.6585L68.7041 61.2593Z" fill="white"/>
<path d="M105.837 61.1765L98.8934 66.8466L98.8031 61.1647H93.9607L84.8533 77H89.2479L95.1035 66.8151L95.4177 73.8455L104.458 66.5075L98.426 76.996H102.844L111.948 61.1647L105.837 61.1765Z" fill="white"/>
<path d="M121.432 61.283H118.2H116.602L116.547 64.1614L109.163 76.996H113.911L122.948 61.283H121.432Z" fill="white"/>
<path d="M142.706 61.2593H127.276L125.261 64.7647H130.905L123.871 76.996H128.289L135.323 64.7647H140.692L142.706 61.2593Z" fill="white"/>
<path d="M86.1414 61.283H82.9642H81.3108L81.2519 64.26L73.9275 76.996H78.6756L87.7084 61.283H86.1414Z" fill="white"/>
</g>
<defs>
<clipPath id="clip0_5_206">
<rect width="188" height="77" fill="white"/>
</clipPath>
</defs>
</svg>
