<svg width="197" height="80" viewBox="0 0 197 80" fill="none" xmlns="http://www.w3.org/2000/svg">
<path d="M63.1603 40.2516L67.1704 32.7044H46.6183L48.6234 29.1824H55.1399L63.6615 23.6478H51.631L53.6361 20.1258H68.6743L80.2035 12.5786H49.6259L33.5852 40.2516H63.1603Z" fill="white"/>
<path d="M93.7379 40.2516L98.2493 32.7044H77.6971L79.201 29.1824H86.2188L94.7404 23.6478H82.7099L84.715 20.1258H99.7531L110.781 12.5786H80.2035L64.6641 40.2516H93.7379Z" fill="white"/>
<path d="M84.715 56.3522L89.2265 48.805C91.2316 45.7862 89.7278 42.7673 85.7176 42.7673H63.1603L47.1196 70.4403H55.6413L60.1527 62.3899H74.1883C78.1985 61.8868 82.71 59.3711 84.715 56.3522ZM78.6998 51.8239L77.6972 53.3333C77.196 53.8365 76.1934 54.3396 75.6922 54.3396H65.1654L67.6718 49.8113H78.1985C78.6998 49.8113 79.2011 50.8176 78.6998 51.8239Z" fill="white"/>
<path d="M49.1246 63.8994L52.1322 58.8679C54.1373 55.8491 52.6335 52.8302 48.6233 52.8302H34.5877L35.5902 51.3208C36.0915 50.3145 37.5953 49.3082 38.5979 49.3082H52.1322L63.1602 41.761H39.0992C35.089 42.7673 30.5775 45.283 28.5724 48.3019L26.0661 53.3333C24.061 56.3522 25.5648 59.3711 29.575 59.3711H43.6106L42.1068 61.3837C41.6055 61.8868 40.603 62.3899 40.1017 62.3899H26.0661L15.0381 69.9371H39.0992C42.6081 69.9371 47.1195 67.4214 49.1246 63.8994Z" fill="white"/>
<path d="M178.453 66.9182L178.954 66.4151H175.445L174.944 66.9182H176.448L174.443 69.9371H174.944L177.45 66.9182H178.453Z" fill="white"/>
<path d="M179.957 68.9308L180.458 66.4151H179.456L177.45 69.9371H177.952L179.957 66.9182L178.954 69.9371H179.456L182.463 66.9182L180.959 69.9371H181.461L183.466 66.4151H182.463L179.957 68.9308Z" fill="white"/>
<path d="M23.5598 40.2516H31.0789H32.0814L47.6209 12.5786H39.0992L29.5751 30.1887L26.0661 12.5786H18.5471L2.50635 40.2516H11.028L20.5522 23.6478L23.5598 40.2516Z" fill="white"/>
<path d="M117.799 40.2516C121.308 40.2516 125.819 37.7358 127.824 34.2138L136.847 18.6163C138.852 15.5975 137.349 12.5786 133.338 12.5786H132.837H110.781L95.2417 40.2516H117.799ZM115.293 20.1258H125.819C126.321 20.1258 126.822 20.6289 126.822 21.1321C126.822 21.1321 126.822 21.6352 126.822 22.1384L121.308 31.6981C120.807 32.2013 119.804 32.7044 118.802 32.7044H108.275L115.293 20.1258Z" fill="white"/>
<path d="M178.453 42.7673H155.896L140.356 70.4403H162.913C166.422 70.4403 170.934 67.9245 172.939 64.4025L181.962 48.805C183.466 45.283 181.962 42.7673 178.453 42.7673ZM171.435 51.8239L165.42 61.3837C164.919 61.8868 163.916 62.3899 162.913 62.3899H152.387L159.405 49.8113H170.433C170.934 49.8113 171.435 50.3145 171.435 50.8176C171.435 51.3208 171.435 51.3208 171.435 51.8239Z" fill="white"/>
<path d="M91.2316 62.3899L93.2367 58.8679H99.7532L108.275 53.3333H96.2443L98.2494 49.8113H113.288L124.817 42.7673H93.7379L78.1985 69.9371H107.272L111.784 62.3899H91.2316Z" fill="white"/>
<path d="M121.809 62.3899L123.814 58.8679H130.832L139.354 53.3333H127.323L129.328 49.8113H144.366L155.394 42.7673H124.817L109.277 69.9371H138.351L142.863 62.3899H121.809Z" fill="white"/>
<path d="M136.346 40.2516L138.852 35.7233L140.356 33.7107H145.369L150.382 30.1887H142.361L143.364 28.1761H153.389L158.903 24.6541L152.387 35.7233L151.885 36.7296C150.883 38.7421 151.885 40.2516 153.891 40.2516H162.913C164.918 40.2516 167.926 38.7421 168.929 36.7296L174.443 27.1698C175.445 25.1572 174.443 23.6478 172.438 23.6478H140.356L131.333 40.2516H136.346ZM163.415 28.1761H167.926C168.427 28.1761 168.929 28.6792 168.427 29.1824L164.918 35.2201C164.417 35.7233 163.916 35.7233 163.415 35.7233H158.402C157.901 35.7233 157.399 35.2201 157.901 34.717L160.908 29.1824C161.911 28.6792 162.412 28.1761 163.415 28.1761Z" fill="white"/>
<path d="M191.987 23.6478H178.954L168.929 40.2516H173.941L176.949 35.2201H183.967L180.959 40.2516H185.972L188.478 35.7233C189.481 34.2138 189.481 33.2075 187.476 33.2075C189.982 33.2075 190.985 31.6981 191.987 29.6855L193.491 27.1698C194.995 25.1572 193.992 23.6478 191.987 23.6478ZM187.476 29.1824L186.975 30.1887C186.473 30.6918 185.972 30.6918 185.471 30.6918H179.455L180.959 28.1761H186.975C187.476 28.1761 187.977 28.6792 187.476 29.1824Z" fill="white"/>
</svg>
