<svg width="171" height="26" viewBox="0 0 171 26" fill="none" xmlns="http://www.w3.org/2000/svg">
<path d="M58.2258 1.73132H112.779V10.3967H79.0707V12.1368H112.781V20.8022H79.0707V24.2686H58.2258V1.73132Z" fill="#E3E3E3"/>
<path d="M1.83545 1.73132H26.3552L35.5442 17.3333V1.73132H56.3891V24.2686H31.8694L22.6803 8.66662V24.2686H1.83545V1.73132Z" fill="#E3E3E3"/>
<path d="M169.164 9.53354V6.9106C169.164 4.04966 166.707 1.73132 163.673 1.73132H120.102C117.069 1.73132 114.611 4.04966 114.611 6.9106V9.82827C114.611 12.5794 116.891 14.8497 119.802 15.0002L148.319 16.4663V19.0671H135.455V16.4663H114.61V19.088C114.61 21.949 117.067 24.2673 120.101 24.2673H163.673C166.707 24.2673 169.164 21.949 169.164 19.088V16.1704C169.164 13.4192 166.884 11.149 163.973 10.9985L135.455 9.53231V6.93279H148.319V9.53354H169.164Z" fill="#E3E3E3"/>
</svg>
